<svg xmlns="http://www.w3.org/2000/svg" width="30" height="30" viewBox="0 0 30 30">
  <g id="edit" transform="translate(-283 96)">
    <rect id="Rectangle_2725" data-name="Rectangle 2725" width="30" height="30" transform="translate(283 -96)" fill="none"/>
    <path id="Path_5412" data-name="Path 5412" d="M8.224,14.164A4.174,4.174,0,0,0,7,17.128V19.09a4.174,4.174,0,0,0,4.174,4.174h1.962A4.174,4.174,0,0,0,16.1,22.039L28.039,10.1a4.174,4.174,0,0,0,0-5.914L26.077,2.225a4.174,4.174,0,0,0-5.914,0ZM24.1,4.187l1.976,1.976a1.391,1.391,0,0,1,0,1.962L24.88,9.35,20.914,5.384l1.2-1.2a1.391,1.391,0,0,1,1.99,0ZM9.783,17.128a1.391,1.391,0,0,1,.4-.988l8.78-8.78L22.9,11.3l-8.78,8.78a1.391,1.391,0,0,1-.988.4H11.174A1.391,1.391,0,0,1,9.783,19.09Z" transform="translate(279.867 -93.131)" fill="#1851d1"/>
  </g>
</svg>
