<svg xmlns="http://www.w3.org/2000/svg" width="30" height="30" viewBox="0 0 30 30">
  <g id="Empty" transform="translate(886 -54)">
    <rect id="Rectangle_2711" data-name="Rectangle 2711" width="30" height="30" transform="translate(-886 54)" fill="none"/>
    <g id="svgexport-10_2_" data-name="svgexport-10 (2)" transform="translate(-881.922 37.272)">
      <path id="Path_5290" data-name="Path 5290" d="M21.6,28.826a1.445,1.445,0,0,0-1.207-.579H18.468V26.153A1.465,1.465,0,0,0,17,24.69H10.256a1.368,1.368,0,0,1-.9-.459l-.505-.691a2.519,2.519,0,0,0-1.862-.946H4.645A1.9,1.9,0,0,0,2.926,23.81l-.161.455a.737.737,0,0,1-.6.425h-.7A1.465,1.465,0,0,0,0,26.153V39.368a.59.59,0,0,0,.035.2,1.336,1.336,0,0,0,.241.717,1.445,1.445,0,0,0,1.207.579H16.392a2.392,2.392,0,0,0,2.138-1.517l3.217-9.19A1.445,1.445,0,0,0,21.6,28.826ZM1.463,25.876h.7A1.9,1.9,0,0,0,3.884,24.66l.161-.455a.737.737,0,0,1,.6-.425H6.984a1.369,1.369,0,0,1,.9.459l.505.691a2.519,2.519,0,0,0,1.862.946H17a.281.281,0,0,1,.277.277v2.094H5.485a2.392,2.392,0,0,0-2.138,1.517l-2.16,6.169v-9.78A.281.281,0,0,1,1.463,25.876Zm19.165,3.888-3.217,9.19a1.208,1.208,0,0,1-1.019.723H1.483a.3.3,0,0,1-.239-.079.3.3,0,0,1,0-.252l3.217-9.19a1.208,1.208,0,0,1,1.019-.723H20.393a.212.212,0,0,1,.234.331Z" fill="#004dd8"/>
    </g>
    <g id="Group_3196" data-name="Group 3196" transform="translate(99.488 -34.578)">
      <path id="Path_5291" data-name="Path 5291" d="M23.137,19.355a3.675,3.675,0,1,0-2.6-1.075,3.675,3.675,0,0,0,2.6,1.075Zm-2.167-5.842a3.053,3.053,0,1,1-.9,2.167A3.064,3.064,0,0,1,20.971,13.514Z" transform="translate(-993.623 90.896)" fill="#004dd8"/>
      <path id="Path_5292" data-name="Path 5292" d="M22.516,19.769a.3.3,0,0,0,.261-.086l2.908-2.908a.306.306,0,0,0-.071-.486,2.451,2.451,0,0,0-3.324,3.323A.306.306,0,0,0,22.516,19.769Zm.631-2.624a1.854,1.854,0,0,1,1.777-.476l-2.252,2.251a1.853,1.853,0,0,1,.473-1.776Zm-.025,3.231a.306.306,0,0,0,.157.225A2.452,2.452,0,0,0,26.6,17.277a.306.306,0,0,0-.486-.07L23.21,20.114a.306.306,0,0,0-.086.262Zm3.1-2.406a1.838,1.838,0,0,1-2.253,2.253Z" transform="translate(-994.932 88.131)" fill="#004dd8"/>
    </g>
  </g>
</svg>
