<svg id="svgexport-19" xmlns="http://www.w3.org/2000/svg" width="23.991" height="17.993" viewBox="0 0 23.991 17.993">
  <path id="Path_5245" data-name="Path 5245" d="M14.974,25.2l1.363-1.363a4.482,4.482,0,0,1-5.5,5.5L12.2,27.975A2.986,2.986,0,0,0,14.974,25.2Zm8.923-.566a15.7,15.7,0,0,0-3.957-4.4l-1.091,1.091A15,15,0,0,1,22.359,25c-.889,1.353-4.374,6-10.364,6a11.016,11.016,0,0,1-2.519-.3L8.244,31.928A12.7,12.7,0,0,0,12,32.494c7.848,0,11.739-6.842,11.9-7.133A.749.749,0,0,0,23.9,24.632ZM20.773,17.28,4.279,33.773a.75.75,0,1,1-1.06-1.06l2.1-2.1A15.731,15.731,0,0,1,.095,25.361a.75.75,0,0,1,0-.729C.256,24.341,4.147,17.5,12,17.5a12.625,12.625,0,0,1,5.29,1.147l2.427-2.427a.75.75,0,1,1,1.06,1.06ZM6.435,29.5l1.9-1.9A4.491,4.491,0,0,1,14.6,21.334L16.133,19.8A11.039,11.039,0,0,0,12,19C6.006,19,2.52,23.642,1.632,25A14.72,14.72,0,0,0,6.435,29.5ZM9.422,26.51l4.088-4.088A2.965,2.965,0,0,0,12,22a3,3,0,0,0-3,3A2.965,2.965,0,0,0,9.422,26.51Z" transform="translate(0 -16)" fill="#a9b6c6"/>
</svg>
