<svg id="help" xmlns="http://www.w3.org/2000/svg" width="10.407" height="17.199" viewBox="0 0 10.407 17.199">
  <path id="help-2" data-name="help" d="M13.85,21.7A1.753,1.753,0,1,1,12.1,23.449,1.753,1.753,0,0,1,13.85,21.7ZM13.85,8a5.283,5.283,0,0,1,5.2,5.473c0,1.644-.6,2.548-2.043,3.7l-.778.6c-.69.546-.922.843-.969,1.258l-.033.438a1.4,1.4,0,0,1-2.785-.252c0-1.6.59-2.482,2.01-3.617l.781-.6c.81-.643,1.01-.96,1.01-1.527a2.483,2.483,0,0,0-2.4-2.666,2.4,2.4,0,0,0-2.4,2.652,1.4,1.4,0,1,1-2.807.027A5.192,5.192,0,0,1,13.85,8Z" transform="translate(-8.647 -8.003)" fill="#004dd8"/>
</svg>
