<svg xmlns="http://www.w3.org/2000/svg" width="24" height="24" viewBox="0 0 24 24">
  <g id="Group_2484" data-name="Group 2484" transform="translate(-3742.717 -1453.717)">
    <rect id="Rectangle_2016" data-name="Rectangle 2016" width="24" height="24" transform="translate(3742.717 1453.717)" fill="none"/>
    <g id="svgexport-15_3_" data-name="svgexport-15 (3)" transform="translate(3744.889 1455.889)">
      <path id="Path_1431" data-name="Path 1431" d="M9.828,0a9.827,9.827,0,1,0,9.827,9.827A9.839,9.839,0,0,0,9.828,0Zm0,18.044a8.216,8.216,0,1,1,8.216-8.216,8.226,8.226,0,0,1-8.216,8.216Z" transform="translate(0 -0.001)" fill="#6c6"/>
      <path id="Path_1432" data-name="Path 1432" d="M75.068,90.545,69.233,96.38l-2.668-2.668a.806.806,0,0,0-1.139,1.139l3.237,3.237a.806.806,0,0,0,1.139,0l6.4-6.4a.806.806,0,0,0-1.139-1.139Z" transform="translate(-60.989 -84.49)" fill="#6c6"/>
    </g>
  </g>
</svg>
