<svg xmlns="http://www.w3.org/2000/svg" width="30" height="30" viewBox="0 0 30 30">
  <g id="Individuals" transform="translate(886 -54)">
    <rect id="Rectangle_2711" data-name="Rectangle 2711" width="30" height="30" transform="translate(-886 54)" fill="none"/>
    <g id="Group_3195" data-name="Group 3195" transform="translate(-68.68 -7.006)">
      <g id="Group_3194" data-name="Group 3194" transform="translate(-809.645 68.006)">
        <path id="Subtraction_19" data-name="Subtraction 19" d="M6.749,8.273H2.395a.653.653,0,0,1,0-1.306H6.745c1.374,0,1.96-.581,1.96-1.942A3.448,3.448,0,0,0,5.27,1.3c-.088,0-.177,0-.264.01H1.472a4.853,4.853,0,0,0-.716.053.9.9,0,0,1-.1.006A.652.652,0,0,1,.124.332.649.649,0,0,1,.55.07,6.133,6.133,0,0,1,1.473,0H5.006a4.713,4.713,0,0,1,5.007,5.025A2.938,2.938,0,0,1,6.749,8.273Z" transform="translate(3.699 8.653)" fill="#004dd8"/>
        <g id="Group_3137" data-name="Group 3137" transform="translate(0 0)">
          <g id="Group_3136" data-name="Group 3136" transform="translate(0 8.653)">
            <path id="Path_5253" data-name="Path 5253" d="M11.507,15.38a4.906,4.906,0,0,0-.767-.053H7.257a3.447,3.447,0,0,0-3.7,3.718c0,1.361.586,1.942,1.96,1.942H9.87a.653.653,0,1,1,0,1.306H5.515A2.938,2.938,0,0,1,2.25,19.045a4.713,4.713,0,0,1,5.007-5.024h3.484a6.058,6.058,0,0,1,.974.07.652.652,0,0,1,.541.748.658.658,0,0,1-.748.541Z" transform="translate(-2.25 -14.021)" fill="#004dd8"/>
          </g>
          <path id="Path_5255" data-name="Path 5255" d="M10.082,9.654a3.7,3.7,0,1,0-3.7-3.7A3.7,3.7,0,0,0,10.082,9.654Zm0-6.1A2.395,2.395,0,1,1,7.687,5.953a2.395,2.395,0,0,1,2.395-2.395Z" transform="translate(-3.226 -2.256)" fill="#004dd8"/>
        </g>
      </g>
      <g id="Group_3137-2" data-name="Group 3137" transform="translate(-814.32 71.7)">
        <g id="Group_3136-2" data-name="Group 3136" transform="translate(0 5.921)">
          <path id="Path_5253-2" data-name="Path 5253" d="M8.584,14.951a3.357,3.357,0,0,0-.525-.036H5.676a2.359,2.359,0,0,0-2.531,2.544c0,.931.4,1.329,1.341,1.329H7.463a.447.447,0,1,1,0,.894H4.484A2.01,2.01,0,0,1,2.25,17.459a3.225,3.225,0,0,1,3.426-3.438H8.06a4.145,4.145,0,0,1,.667.048.446.446,0,0,1,.37.512.45.45,0,0,1-.512.37Z" transform="translate(-2.25 -14.021)" fill="#004dd8"/>
        </g>
        <path id="Path_5255-2" data-name="Path 5255" d="M8.914,7.317A2.531,2.531,0,1,0,6.383,4.787,2.531,2.531,0,0,0,8.914,7.317Zm0-4.171A1.638,1.638,0,1,1,7.275,4.785,1.638,1.638,0,0,1,8.914,3.147Z" transform="translate(-4.223 -2.256)" fill="#004dd8"/>
      </g>
      <g id="Group_3137-3" data-name="Group 3137" transform="translate(-798.312 71.7)">
        <g id="Group_3136-3" data-name="Group 3136" transform="translate(0.37 5.921)">
          <path id="Path_5253-3" data-name="Path 5253" d="M2.768,14.951a3.357,3.357,0,0,1,.525-.036H5.676a2.359,2.359,0,0,1,2.531,2.544c0,.931-.4,1.329-1.341,1.329H3.889a.447.447,0,1,0,0,.894H6.868A2.01,2.01,0,0,0,9.1,17.459a3.225,3.225,0,0,0-3.426-3.438H3.292a4.145,4.145,0,0,0-.667.048.446.446,0,0,0-.37.512.45.45,0,0,0,.512.37Z" transform="translate(-2.25 -14.021)" fill="#004dd8"/>
        </g>
        <path id="Path_5255-3" data-name="Path 5255" d="M8.914,7.317a2.531,2.531,0,1,1,2.531-2.531A2.531,2.531,0,0,1,8.914,7.317Zm0-4.171a1.638,1.638,0,1,0,1.638,1.638A1.638,1.638,0,0,0,8.914,3.147Z" transform="translate(-6.383 -2.256)" fill="#004dd8"/>
      </g>
    </g>
  </g>
</svg>
