<svg xmlns="http://www.w3.org/2000/svg" width="12.931" height="16.099" viewBox="0 0 12.931 16.099">
  <g id="svgexport-10_1_" data-name="svgexport-10 (1)" transform="translate(-83)">
    <path id="Path_5407" data-name="Path 5407" d="M165.975,85.974a.745.745,0,0,0-.2-1.477,2.051,2.051,0,0,1-.273.018,2.012,2.012,0,1,1,2.012-2.012,2.041,2.041,0,0,1-.026.327.745.745,0,0,0,1.471.24,3.5,3.5,0,1,0-2.985,2.9Z" transform="translate(-76.056 -76.056)" fill="#1851d1"/>
    <path id="Path_5408" data-name="Path 5408" d="M88.817,15.752a.745.745,0,0,0,1.26,0,20.254,20.254,0,0,1,2.433-2.946c1.681-1.792,3.419-3.645,3.421-6.4a6.339,6.339,0,0,0-1.909-4.548,6.532,6.532,0,0,0-9.135,0A6.364,6.364,0,0,0,83,6.41c0,2.755,1.732,4.611,3.4,6.406A20.479,20.479,0,0,1,88.817,15.752Zm.63-14.261A4.966,4.966,0,0,1,94.44,6.409c0,2.161-1.4,3.651-3.018,5.376a28.364,28.364,0,0,0-1.975,2.263A28.686,28.686,0,0,0,87.5,11.8c-1.611-1.729-3-3.222-3-5.389A4.89,4.89,0,0,1,89.447,1.491Z" transform="translate(0 0)" fill="#1851d1"/>
  </g>
</svg>
