<svg xmlns="http://www.w3.org/2000/svg" xmlns:xlink="http://www.w3.org/1999/xlink" width="696" height="661" viewBox="0 0 696 661">
  <defs>
    <clipPath id="clip-path">
      <rect id="Rectangle_2973" data-name="Rectangle 2973" width="696" height="661" transform="translate(-6158 -3054)" fill="#71b582"/>
    </clipPath>
    <linearGradient id="linear-gradient" x1="0.5" x2="0.5" y2="1" gradientUnits="objectBoundingBox">
      <stop offset="0" stop-color="#defcff" stop-opacity="0"/>
      <stop offset="1" stop-color="#defcff"/>
    </linearGradient>
  </defs>
  <g id="Mask_Group_2" data-name="Mask Group 2" transform="translate(6158 3054)" clip-path="url(#clip-path)">
    <g id="Group_3517" data-name="Group 3517" transform="translate(-6507.729 -2991.271)">
      <g id="Group_3322" data-name="Group 3322" transform="translate(-0.001 0)">
        <rect id="Rectangle_2959" data-name="Rectangle 2959" width="696" height="594.509" transform="translate(350)" fill="url(#linear-gradient)"/>
      </g>
      <g id="Group_3344" data-name="Group 3344" transform="translate(368.72 266.665)">
        <g id="Group_3329" data-name="Group 3329" transform="translate(29.976)">
          <g id="Group_3325" data-name="Group 3325">
            <g id="Group_3323" data-name="Group 3323">
              <path id="Path_5702" data-name="Path 5702" d="M205.555,38.923V148.535a54.806,54.806,0,0,1,0-109.612Z" transform="translate(-150.892 -38.923)" fill="#77bd0d"/>
            </g>
            <g id="Group_3324" data-name="Group 3324" transform="translate(54.663)">
              <path id="Path_5703" data-name="Path 5703" d="M226.243,93.729a54.735,54.735,0,0,1-54.663,54.806V38.923A54.735,54.735,0,0,1,226.243,93.729Z" transform="translate(-171.58 -38.923)" fill="#92d205"/>
            </g>
          </g>
          <g id="Group_3326" data-name="Group 3326" transform="translate(47.829 30.516)">
            <rect id="Rectangle_2960" data-name="Rectangle 2960" width="13.666" height="232.066" fill="#614f4b"/>
          </g>
          <g id="Group_3327" data-name="Group 3327" transform="translate(13.375 55.127)">
            <path id="Path_5704" data-name="Path 5704" d="M197.241,94.584l-6.58,6.6-34.707-34.8,6.58-6.6Z" transform="translate(-155.954 -59.787)" fill="#614f4b"/>
          </g>
          <g id="Group_3328" data-name="Group 3328" transform="translate(54.662 44.229)">
            <path id="Path_5705" data-name="Path 5705" d="M171.58,80.339l6.581,6.6,24.612-24.678-6.58-6.6Z" transform="translate(-171.58 -55.662)" fill="#614f4b"/>
          </g>
        </g>
        <g id="Group_3336" data-name="Group 3336" transform="translate(81.611 87.184)">
          <g id="Group_3332" data-name="Group 3332" transform="translate(19.782)">
            <g id="Group_3330" data-name="Group 3330">
              <path id="Path_5706" data-name="Path 5706" d="M249.213,84.182,190.153,143.4a41.817,41.817,0,0,1,59.06-59.216Z" transform="translate(-177.92 -71.919)" fill="#77bd0d"/>
            </g>
            <g id="Group_3331" data-name="Group 3331" transform="translate(12.233 12.263)">
              <path id="Path_5707" data-name="Path 5707" d="M241.61,135.776a41.687,41.687,0,0,1-59.06,0L241.61,76.56A41.947,41.947,0,0,1,241.61,135.776Z" transform="translate(-182.55 -76.56)" fill="#92d205"/>
            </g>
          </g>
          <g id="Group_3333" data-name="Group 3333" transform="translate(0 25.047)">
            <path id="Path_5708" data-name="Path 5708" d="M177.816,159.927l-7.382-7.4L241.376,81.4l7.382,7.4Z" transform="translate(-170.434 -81.399)" fill="#614f4b"/>
          </g>
          <g id="Group_3334" data-name="Group 3334" transform="translate(35.513 23.245)">
            <rect id="Rectangle_2961" data-name="Rectangle 2961" width="7.109" height="37.598" fill="#614f4b"/>
          </g>
          <g id="Group_3335" data-name="Group 3335" transform="translate(53.947 49.488)">
            <rect id="Rectangle_2962" data-name="Rectangle 2962" width="26.594" height="7.127" fill="#614f4b"/>
          </g>
        </g>
        <g id="Group_3343" data-name="Group 3343" transform="translate(0 108.938)">
          <g id="Group_3339" data-name="Group 3339">
            <g id="Group_3337" data-name="Group 3337" transform="translate(9.663)">
              <path id="Path_5709" data-name="Path 5709" d="M143.2,89.839l46.657,46.781A33.035,33.035,0,1,0,143.2,89.839Z" transform="translate(-143.204 -80.152)" fill="#92d205"/>
            </g>
            <g id="Group_3338" data-name="Group 3338" transform="translate(0 9.687)">
              <path id="Path_5710" data-name="Path 5710" d="M149.21,130.6a32.935,32.935,0,0,0,46.657,0L149.21,83.818A33.142,33.142,0,0,0,149.21,130.6Z" transform="translate(-139.547 -83.818)" fill="#77bd0d"/>
            </g>
          </g>
          <g id="Group_3340" data-name="Group 3340" transform="translate(19.737 19.787)">
            <path id="Path_5711" data-name="Path 5711" d="M203.058,149.676l5.833-5.847L152.848,87.641l-5.831,5.848Z" transform="translate(-147.017 -87.641)" fill="#614f4b"/>
          </g>
          <g id="Group_3341" data-name="Group 3341" transform="translate(47.94 18.363)">
            <rect id="Rectangle_2963" data-name="Rectangle 2963" width="5.616" height="29.702" fill="#614f4b"/>
          </g>
          <g id="Group_3342" data-name="Group 3342" transform="translate(17.985 39.094)">
            <rect id="Rectangle_2964" data-name="Rectangle 2964" width="21.009" height="5.63" fill="#614f4b"/>
          </g>
        </g>
      </g>
      <g id="Group_3351" data-name="Group 3351" transform="translate(105.781 380.38)">
        <g id="Group_3347" data-name="Group 3347" transform="translate(0 0)">
          <g id="Group_3345" data-name="Group 3345" transform="translate(54.246)">
            <path id="Path_5712" data-name="Path 5712" d="M60.564,81.96V190.731a54.386,54.386,0,0,0,0-108.771Z" transform="translate(-60.564 -81.96)" fill="#77bd0d"/>
          </g>
          <g id="Group_3346" data-name="Group 3346">
            <path id="Path_5713" data-name="Path 5713" d="M40.034,136.346A54.316,54.316,0,0,0,94.28,190.731V81.96A54.316,54.316,0,0,0,40.034,136.346Z" transform="translate(-40.034 -81.96)" fill="#92d205"/>
          </g>
        </g>
        <g id="Group_3348" data-name="Group 3348" transform="translate(47.464 30.281)">
          <rect id="Rectangle_2965" data-name="Rectangle 2965" width="13.561" height="120.934" fill="#614f4b"/>
        </g>
        <g id="Group_3349" data-name="Group 3349" transform="translate(54.244 54.704)">
          <path id="Path_5714" data-name="Path 5714" d="M60.564,137.195l6.531,6.546,34.441-34.531-6.53-6.546Z" transform="translate(-60.564 -102.664)" fill="#614f4b"/>
        </g>
        <g id="Group_3350" data-name="Group 3350" transform="translate(23.29 43.889)">
          <path id="Path_5715" data-name="Path 5715" d="M79.8,123.06l-6.53,6.546-24.424-24.49,6.53-6.546Z" transform="translate(-48.849 -98.57)" fill="#614f4b"/>
        </g>
      </g>
      <g id="Group_3358" data-name="Group 3358" transform="translate(779.082 396.083)">
        <g id="Group_3354" data-name="Group 3354">
          <g id="Group_3352" data-name="Group 3352" transform="translate(46.787)">
            <path id="Path_5716" data-name="Path 5716" d="M312.561,87.9v93.824a46.912,46.912,0,0,0,0-93.824Z" transform="translate(-312.561 -87.903)" fill="#77bd0d"/>
          </g>
          <g id="Group_3353" data-name="Group 3353">
            <path id="Path_5717" data-name="Path 5717" d="M294.854,134.814a46.849,46.849,0,0,0,46.787,46.913V87.9A46.846,46.846,0,0,0,294.854,134.814Z" transform="translate(-294.854 -87.903)" fill="#92d205"/>
          </g>
        </g>
        <g id="Group_3355" data-name="Group 3355" transform="translate(40.936 26.12)">
          <rect id="Rectangle_2966" data-name="Rectangle 2966" width="11.696" height="104.313" fill="#614f4b"/>
        </g>
        <g id="Group_3356" data-name="Group 3356" transform="translate(46.785 47.187)">
          <path id="Path_5718" data-name="Path 5718" d="M312.561,135.547l5.633,5.646,29.7-29.785-5.628-5.646Z" transform="translate(-312.561 -105.762)" fill="#614f4b"/>
        </g>
        <g id="Group_3357" data-name="Group 3357" transform="translate(20.084 37.858)">
          <path id="Path_5719" data-name="Path 5719" d="M329.156,123.354,323.526,129l-21.071-21.122,5.635-5.647Z" transform="translate(-302.455 -102.231)" fill="#614f4b"/>
        </g>
      </g>
      <g id="Group_3398" data-name="Group 3398" transform="translate(880.777 276.198)">
        <g id="Group_3395" data-name="Group 3395" transform="translate(32.574 0)">
          <g id="Group_3371" data-name="Group 3371" transform="translate(0 21.108)">
            <g id="Group_3360" data-name="Group 3360" transform="translate(0 23.69)">
              <g id="Group_3359" data-name="Group 3359">
                <rect id="Rectangle_2967" data-name="Rectangle 2967" width="119.165" height="206.04" fill="#349299"/>
              </g>
            </g>
            <g id="Group_3362" data-name="Group 3362" transform="translate(8.778 182.443)">
              <g id="Group_3361" data-name="Group 3361">
                <rect id="Rectangle_2968" data-name="Rectangle 2968" width="84.851" height="26.921" fill="#7bcfe4"/>
              </g>
            </g>
            <g id="Group_3364" data-name="Group 3364" transform="translate(0 35.476)">
              <g id="Group_3363" data-name="Group 3363">
                <path id="Path_5720" data-name="Path 5720" d="M464.835,128.159,345.67,84.176V63.946l119.165,43.983Z" transform="translate(-345.67 -63.946)" fill="#195467"/>
              </g>
            </g>
            <g id="Group_3366" data-name="Group 3366" transform="translate(0 123.776)">
              <g id="Group_3365" data-name="Group 3365">
                <path id="Path_5721" data-name="Path 5721" d="M542.663,191.037,345.67,117.594V97.364l196.993,73.444Z" transform="translate(-345.67 -97.364)" fill="#195467"/>
              </g>
            </g>
            <g id="Group_3368" data-name="Group 3368" transform="translate(0 79.154)">
              <g id="Group_3367" data-name="Group 3367">
                <path id="Path_5722" data-name="Path 5722" d="M345.67,144.688l119.165-43.982V80.477L345.67,124.46Z" transform="translate(-345.67 -80.477)" fill="#2e6d7c"/>
              </g>
            </g>
            <g id="Group_3370" data-name="Group 3370" transform="translate(51.201)">
              <g id="Group_3369" data-name="Group 3369">
                <rect id="Rectangle_2969" data-name="Rectangle 2969" width="47.785" height="24.224" fill="#3fa4a9"/>
              </g>
            </g>
          </g>
          <g id="Group_3376" data-name="Group 3376" transform="translate(154.737)">
            <g id="Group_3373" data-name="Group 3373">
              <g id="Group_3372" data-name="Group 3372">
                <path id="Path_5723" data-name="Path 5723" d="M413.96,42.531l-9.728,141.827h22.289V42.531Z" transform="translate(-404.232 -42.531)" fill="#ff6a4d"/>
              </g>
            </g>
            <g id="Group_3375" data-name="Group 3375" transform="translate(22.289)">
              <g id="Group_3374" data-name="Group 3374">
                <path id="Path_5724" data-name="Path 5724" d="M425.234,42.531H412.668V184.357h22.3Z" transform="translate(-412.668 -42.531)" fill="#ff4e1f"/>
              </g>
            </g>
          </g>
          <g id="Group_3378" data-name="Group 3378" transform="translate(102.682 110.064)">
            <g id="Group_3377" data-name="Group 3377">
              <path id="Path_5725" data-name="Path 5725" d="M495.54,118.9V84.186L459.513,118.9V84.186L423.484,118.9V84.186l-38.953,37.536V224.96H531.564V84.186Z" transform="translate(-384.531 -84.186)" fill="#7bcfe4"/>
            </g>
          </g>
          <g id="Group_3394" data-name="Group 3394" transform="translate(136.822 161.717)">
            <g id="Group_3381" data-name="Group 3381" transform="translate(13.896 0.897)">
              <g id="Group_3380" data-name="Group 3380">
                <g id="Group_3379" data-name="Group 3379">
                  <path id="Path_5726" data-name="Path 5726" d="M419.154,130.364l-16.443-9.9,6.492-11.4c4-6.717,11.327-7.02,16.239,1.366.711,1.215,2.938,4.962,2.938,4.962Z" transform="translate(-402.711 -104.074)" fill="#59910b"/>
                </g>
              </g>
            </g>
            <g id="Group_3384" data-name="Group 3384" transform="translate(53.857 26.697)">
              <g id="Group_3383" data-name="Group 3383">
                <g id="Group_3382" data-name="Group 3382">
                  <path id="Path_5727" data-name="Path 5727" d="M417.835,123.156l16.771-9.317,6.6,11.33c3.8,6.833.4,13.346-9.3,13.42-1.406.013-5.76.071-5.76.071Z" transform="translate(-417.835 -113.839)" fill="#59910b"/>
                </g>
              </g>
            </g>
            <g id="Group_3386" data-name="Group 3386" transform="translate(29.977)">
              <g id="Group_3385" data-name="Group 3385">
                <path id="Path_5728" data-name="Path 5728" d="M419.72,128.438l19.386.824,8.957-15.891-5.665,3.01-4.439-7.932c-2.486-3.35-2.912-4.714-14.818-4.714H408.8l.087.053a10.948,10.948,0,0,1,7.715,5.718l8.7,15.967Z" transform="translate(-408.797 -103.735)" fill="#59910b"/>
              </g>
            </g>
            <g id="Group_3388" data-name="Group 3388" transform="translate(40.205 46.203)">
              <g id="Group_3387" data-name="Group 3387">
                <path id="Path_5729" data-name="Path 5729" d="M423.076,121.221l-10.408,16.416,9.251,15.719.23-6.415,9.071.111c4.146-.486,5.525-.172,11.481-10.516l7.179-12.453-.087.053a10.149,10.149,0,0,1-8.616,3.554H423.039Z" transform="translate(-412.668 -121.221)" fill="#59910b"/>
              </g>
            </g>
            <g id="Group_3391" data-name="Group 3391" transform="translate(0 26.008)">
              <g id="Group_3390" data-name="Group 3390">
                <g id="Group_3389" data-name="Group 3389">
                  <path id="Path_5730" data-name="Path 5730" d="M425.241,130.821l-8.976-17.243-18.2.166,5.422,3.411-4.635,7.821c-4.484,8.117,2.555,14.112,10.411,14.112h3.522l7.108-11.626Z" transform="translate(-397.452 -113.578)" fill="#59910b"/>
                </g>
              </g>
            </g>
            <g id="Group_3393" data-name="Group 3393" transform="translate(1.279 48.464)">
              <g id="Group_3392" data-name="Group 3392">
                <path id="Path_5731" data-name="Path 5731" d="M432.272,126.283l-.19,19.685h-16.11a9.681,9.681,0,0,1-8.223-5.261c-2.309-4.645-9.813-18.631-9.813-18.631a11.068,11.068,0,0,0,8.749,4.206C417.09,126.534,432.272,126.283,432.272,126.283Z" transform="translate(-397.936 -122.077)" fill="#59910b"/>
              </g>
            </g>
          </g>
        </g>
        <g id="Group_3397" data-name="Group 3397" transform="translate(0 110.064)">
          <g id="Group_3396" data-name="Group 3396">
            <path id="Path_5732" data-name="Path 5732" d="M365.916,224.96H333.342V115.949l32.574-31.763Z" transform="translate(-333.342 -84.186)" fill="#195467"/>
          </g>
        </g>
      </g>
      <g id="Group_3399" data-name="Group 3399" transform="translate(-0.001 523.908)">
        <rect id="Rectangle_2970" data-name="Rectangle 2970" width="1393.459" height="74.362" transform="translate(0 0)" fill="#b2bcc1"/>
      </g>
      <g id="Group_3476" data-name="Group 3476" transform="translate(225.621 444.228)">
        <g id="Group_3418" data-name="Group 3418" transform="translate(92.17 0)">
          <g id="Group_3401" data-name="Group 3401" transform="translate(0.215 6.604)">
            <g id="Group_3400" data-name="Group 3400">
              <path id="Path_5733" data-name="Path 5733" d="M133.156,120.844l-6.829-12.22h-5.973l8.64,15.162h11.842v-2.942Z" transform="translate(-120.354 -108.624)" fill="#e6cf00"/>
            </g>
          </g>
          <g id="Group_3403" data-name="Group 3403" transform="translate(14.884)">
            <g id="Group_3402" data-name="Group 3402">
              <path id="Path_5734" data-name="Path 5734" d="M183.514,112.756c0,3.662-12.9,6.632-28.806,6.632s-28.8-2.97-28.8-6.632,12.9-6.632,28.8-6.632S183.514,109.094,183.514,112.756Z" transform="translate(-125.905 -106.124)" fill="#eede52"/>
            </g>
          </g>
          <g id="Group_3410" data-name="Group 3410" transform="translate(13.655 3.85)">
            <g id="Group_3405" data-name="Group 3405" transform="translate(9.721 54.819)">
              <g id="Group_3404" data-name="Group 3404">
                <path id="Path_5735" data-name="Path 5735" d="M130.707,128.328h-1.588l5.377,12.995,11.415,9.2v-6.954A15.221,15.221,0,0,0,130.707,128.328Z" transform="translate(-129.119 -128.328)" fill="#e6cf00"/>
              </g>
            </g>
            <g id="Group_3407" data-name="Group 3407">
              <g id="Group_3406" data-name="Group 3406">
                <path id="Path_5736" data-name="Path 5736" d="M186.677,113.143l-.193.563.351-6.125h-61.4l9.721,54.819h1.588a15.221,15.221,0,0,1,15.2,15.241v6.954h24.562a6.259,6.259,0,0,0,6.241-5.911l3.16-55.041,9.4-7.612v-2.888Z" transform="translate(-125.44 -107.581)" fill="#ead629"/>
              </g>
            </g>
            <g id="Group_3409" data-name="Group 3409" transform="translate(8.511 12.487)" opacity="0.43" style="mix-blend-mode: multiply;isolation: isolate">
              <g id="Group_3408" data-name="Group 3408">
                <path id="Path_5737" data-name="Path 5737" d="M153.792,169.681a22.417,22.417,0,0,0-17.864-21.743l-7.266-35.631H173.69L170.4,169.681Z" transform="translate(-128.661 -112.307)" fill="#ead629"/>
              </g>
            </g>
          </g>
          <g id="Group_3412" data-name="Group 3412" transform="translate(0 2.674)">
            <g id="Group_3411" data-name="Group 3411">
              <path id="Path_5738" data-name="Path 5738" d="M195.164,113.874h-71.93a2.963,2.963,0,0,1-2.962-2.965v-.885a2.887,2.887,0,0,1,2.883-2.888h72.57a2.806,2.806,0,0,1,2.8,2.809v.563A3.366,3.366,0,0,1,195.164,113.874Z" transform="translate(-120.272 -107.136)" fill="#eddc47"/>
            </g>
          </g>
          <g id="Group_3417" data-name="Group 3417" transform="translate(19.579 62.463)">
            <g id="Group_3414" data-name="Group 3414">
              <g id="Group_3413" data-name="Group 3413">
                <path id="Path_5739" data-name="Path 5739" d="M146.03,138.964a9.174,9.174,0,1,1-9.174-9.2A9.19,9.19,0,0,1,146.03,138.964Z" transform="translate(-127.682 -129.764)" fill="#414042"/>
              </g>
            </g>
            <g id="Group_3416" data-name="Group 3416" transform="translate(5.219 5.246)">
              <g id="Group_3415" data-name="Group 3415">
                <circle id="Ellipse_166" data-name="Ellipse 166" cx="3.954" cy="3.954" r="3.954" fill="#a7a9ac"/>
              </g>
            </g>
          </g>
        </g>
        <g id="Group_3437" data-name="Group 3437" transform="translate(61.448 0)">
          <g id="Group_3420" data-name="Group 3420" transform="translate(0.213 6.604)">
            <g id="Group_3419" data-name="Group 3419">
              <path id="Path_5740" data-name="Path 5740" d="M121.527,120.844l-6.828-12.22h-5.973l8.64,15.162h11.842v-2.942Z" transform="translate(-108.726 -108.624)" fill="#0087c6"/>
            </g>
          </g>
          <g id="Group_3422" data-name="Group 3422" transform="translate(14.881)">
            <g id="Group_3421" data-name="Group 3421">
              <path id="Path_5741" data-name="Path 5741" d="M171.886,112.756c0,3.662-12.9,6.632-28.806,6.632s-28.8-2.97-28.8-6.632,12.9-6.632,28.8-6.632S171.886,109.094,171.886,112.756Z" transform="translate(-114.277 -106.124)" fill="#52aed8"/>
            </g>
          </g>
          <g id="Group_3429" data-name="Group 3429" transform="translate(13.655 3.85)">
            <g id="Group_3424" data-name="Group 3424" transform="translate(9.718 54.819)">
              <g id="Group_3423" data-name="Group 3423">
                <path id="Path_5742" data-name="Path 5742" d="M119.079,128.328h-1.588l5.377,12.995,11.415,9.2v-6.954A15.221,15.221,0,0,0,119.079,128.328Z" transform="translate(-117.491 -128.328)" fill="#0087c6"/>
              </g>
            </g>
            <g id="Group_3426" data-name="Group 3426">
              <g id="Group_3425" data-name="Group 3425">
                <path id="Path_5743" data-name="Path 5743" d="M175.047,113.143l-.19.563.349-6.125H113.813l9.718,54.819h1.588a15.221,15.221,0,0,1,15.2,15.241v6.954h24.562a6.259,6.259,0,0,0,6.241-5.911l3.16-55.041,9.4-7.612v-2.888Z" transform="translate(-113.813 -107.581)" fill="#299acf"/>
              </g>
            </g>
            <g id="Group_3428" data-name="Group 3428" transform="translate(8.508 12.487)" opacity="0.43" style="mix-blend-mode: multiply;isolation: isolate">
              <g id="Group_3427" data-name="Group 3427">
                <path id="Path_5744" data-name="Path 5744" d="M142.164,169.681A22.42,22.42,0,0,0,124.3,147.938l-7.264-35.631h45.029l-3.292,57.374Z" transform="translate(-117.033 -112.307)" fill="#299acf"/>
              </g>
            </g>
          </g>
          <g id="Group_3431" data-name="Group 3431" transform="translate(0 2.674)">
            <g id="Group_3430" data-name="Group 3430">
              <path id="Path_5745" data-name="Path 5745" d="M183.535,113.874H111.6a2.962,2.962,0,0,1-2.959-2.965v-.885a2.885,2.885,0,0,1,2.88-2.888h72.57a2.806,2.806,0,0,1,2.8,2.809v.563A3.365,3.365,0,0,1,183.535,113.874Z" transform="translate(-108.645 -107.136)" fill="#47a9d6"/>
            </g>
          </g>
          <g id="Group_3436" data-name="Group 3436" transform="translate(19.577 62.463)">
            <g id="Group_3433" data-name="Group 3433">
              <g id="Group_3432" data-name="Group 3432">
                <path id="Path_5746" data-name="Path 5746" d="M134.4,138.964a9.174,9.174,0,1,1-9.174-9.2A9.19,9.19,0,0,1,134.4,138.964Z" transform="translate(-116.054 -129.764)" fill="#414042"/>
              </g>
            </g>
            <g id="Group_3435" data-name="Group 3435" transform="translate(5.218 5.237)">
              <g id="Group_3434" data-name="Group 3434">
                <path id="Path_5747" data-name="Path 5747" d="M121.984,139.675a3.965,3.965,0,1,1,3.953-3.966A3.967,3.967,0,0,1,121.984,139.675Z" transform="translate(-118.029 -131.746)" fill="#aaa9aa"/>
              </g>
            </g>
          </g>
        </g>
        <g id="Group_3456" data-name="Group 3456" transform="translate(30.724 0)">
          <g id="Group_3439" data-name="Group 3439" transform="translate(0.212 6.604)">
            <g id="Group_3438" data-name="Group 3438">
              <path id="Path_5748" data-name="Path 5748" d="M109.9,120.844l-6.828-12.22H97.1l8.642,15.162H117.58v-2.942Z" transform="translate(-97.097 -108.624)" fill="#f24500"/>
            </g>
          </g>
          <g id="Group_3441" data-name="Group 3441" transform="translate(14.881)">
            <g id="Group_3440" data-name="Group 3440">
              <path id="Path_5749" data-name="Path 5749" d="M160.258,112.756c0,3.662-12.9,6.632-28.806,6.632s-28.8-2.97-28.8-6.632,12.894-6.632,28.8-6.632S160.258,109.094,160.258,112.756Z" transform="translate(-102.649 -106.124)" fill="#64b9cd"/>
            </g>
          </g>
          <g id="Group_3448" data-name="Group 3448" transform="translate(13.655 3.85)">
            <g id="Group_3443" data-name="Group 3443" transform="translate(9.718 54.819)">
              <g id="Group_3442" data-name="Group 3442">
                <path id="Path_5750" data-name="Path 5750" d="M107.451,128.328h-1.588l5.377,12.995,11.415,9.2v-6.954A15.221,15.221,0,0,0,107.451,128.328Z" transform="translate(-105.863 -128.328)" fill="#f24500"/>
              </g>
            </g>
            <g id="Group_3445" data-name="Group 3445">
              <g id="Group_3444" data-name="Group 3444">
                <path id="Path_5751" data-name="Path 5751" d="M163.419,113.143l-.193.563.351-6.125H102.185L111.9,162.4h1.588a15.221,15.221,0,0,1,15.2,15.241v6.954h24.562a6.261,6.261,0,0,0,6.241-5.911l3.158-55.041,9.4-7.612v-2.888Z" transform="translate(-102.185 -107.581)" fill="#f46229"/>
              </g>
            </g>
            <g id="Group_3447" data-name="Group 3447" transform="translate(8.508 12.487)" opacity="0.43" style="mix-blend-mode: multiply;isolation: isolate">
              <g id="Group_3446" data-name="Group 3446">
                <path id="Path_5752" data-name="Path 5752" d="M130.536,169.681a22.42,22.42,0,0,0-17.867-21.743L105.4,112.307h45.027l-3.29,57.374Z" transform="translate(-105.405 -112.307)" fill="#f46229"/>
              </g>
            </g>
          </g>
          <g id="Group_3450" data-name="Group 3450" transform="translate(0 2.674)">
            <g id="Group_3449" data-name="Group 3449">
              <path id="Path_5753" data-name="Path 5753" d="M171.907,113.874H99.976a2.961,2.961,0,0,1-2.959-2.965v-.885a2.883,2.883,0,0,1,2.88-2.888h72.57a2.8,2.8,0,0,1,2.8,2.809v.563A3.363,3.363,0,0,1,171.907,113.874Z" transform="translate(-97.017 -107.136)" fill="#f67947"/>
            </g>
          </g>
          <g id="Group_3455" data-name="Group 3455" transform="translate(19.574 62.463)">
            <g id="Group_3452" data-name="Group 3452">
              <g id="Group_3451" data-name="Group 3451">
                <path id="Path_5754" data-name="Path 5754" d="M122.776,138.964a9.175,9.175,0,1,1-9.174-9.2A9.19,9.19,0,0,1,122.776,138.964Z" transform="translate(-104.425 -129.764)" fill="#414042"/>
              </g>
            </g>
            <g id="Group_3454" data-name="Group 3454" transform="translate(5.221 5.237)">
              <g id="Group_3453" data-name="Group 3453">
                <path id="Path_5755" data-name="Path 5755" d="M110.356,139.675a3.965,3.965,0,1,1,3.953-3.966A3.967,3.967,0,0,1,110.356,139.675Z" transform="translate(-106.401 -131.746)" fill="#a7a9ac"/>
              </g>
            </g>
          </g>
        </g>
        <g id="Group_3475" data-name="Group 3475" transform="translate(0 0)">
          <g id="Group_3458" data-name="Group 3458" transform="translate(0.212 6.604)">
            <g id="Group_3457" data-name="Group 3457">
              <path id="Path_5756" data-name="Path 5756" d="M98.271,120.844l-6.828-12.22H85.469l8.642,15.162h11.841v-2.942Z" transform="translate(-85.469 -108.624)" fill="#349299"/>
            </g>
          </g>
          <g id="Group_3460" data-name="Group 3460" transform="translate(14.881)">
            <g id="Group_3459" data-name="Group 3459">
              <path id="Path_5757" data-name="Path 5757" d="M148.628,112.756c0,3.662-12.9,6.632-28.8,6.632s-28.8-2.97-28.8-6.632,12.894-6.632,28.8-6.632S148.628,109.094,148.628,112.756Z" transform="translate(-91.021 -106.124)" fill="#64b9cd"/>
            </g>
          </g>
          <g id="Group_3467" data-name="Group 3467" transform="translate(13.655 3.85)">
            <g id="Group_3462" data-name="Group 3462" transform="translate(9.718 54.819)">
              <g id="Group_3461" data-name="Group 3461">
                <path id="Path_5758" data-name="Path 5758" d="M95.823,128.328H94.235l5.377,12.995,11.415,9.2v-6.954A15.221,15.221,0,0,0,95.823,128.328Z" transform="translate(-94.235 -128.328)" fill="#349299"/>
              </g>
            </g>
            <g id="Group_3464" data-name="Group 3464">
              <g id="Group_3463" data-name="Group 3463">
                <path id="Path_5759" data-name="Path 5759" d="M151.791,113.143l-.193.563.351-6.125H90.557l9.718,54.819h1.588a15.221,15.221,0,0,1,15.2,15.241v6.954h24.563a6.265,6.265,0,0,0,6.244-5.911l3.155-55.041,9.4-7.612v-2.888Z" transform="translate(-90.557 -107.581)" fill="#40afa1"/>
              </g>
            </g>
            <g id="Group_3466" data-name="Group 3466" transform="translate(8.508 12.487)" opacity="0.43" style="mix-blend-mode: multiply;isolation: isolate">
              <g id="Group_3465" data-name="Group 3465">
                <path id="Path_5760" data-name="Path 5760" d="M118.908,169.681a22.42,22.42,0,0,0-17.867-21.743l-7.264-35.631H138.8l-3.29,57.374Z" transform="translate(-93.777 -112.307)" fill="#40afa1"/>
              </g>
            </g>
          </g>
          <g id="Group_3469" data-name="Group 3469" transform="translate(0 2.674)">
            <g id="Group_3468" data-name="Group 3468">
              <path id="Path_5761" data-name="Path 5761" d="M160.279,113.874H88.348a2.961,2.961,0,0,1-2.959-2.965v-.885a2.883,2.883,0,0,1,2.88-2.888h72.57a2.8,2.8,0,0,1,2.8,2.809v.563A3.363,3.363,0,0,1,160.279,113.874Z" transform="translate(-85.389 -107.136)" fill="#45c6ab"/>
            </g>
          </g>
          <g id="Group_3474" data-name="Group 3474" transform="translate(19.574 62.463)">
            <g id="Group_3471" data-name="Group 3471">
              <g id="Group_3470" data-name="Group 3470">
                <path id="Path_5762" data-name="Path 5762" d="M111.148,138.964a9.175,9.175,0,1,1-9.174-9.2A9.188,9.188,0,0,1,111.148,138.964Z" transform="translate(-92.797 -129.764)" fill="#414042"/>
              </g>
            </g>
            <g id="Group_3473" data-name="Group 3473" transform="translate(5.221 5.246)">
              <g id="Group_3472" data-name="Group 3472">
                <circle id="Ellipse_167" data-name="Ellipse 167" cx="3.954" cy="3.954" r="3.954" fill="#a7a9ac"/>
              </g>
            </g>
          </g>
        </g>
      </g>
      <g id="Group_3508" data-name="Group 3508" transform="translate(550.597 394.381)">
        <g id="Group_3505" data-name="Group 3505" transform="translate(0 0)">
          <g id="Group_3478" data-name="Group 3478" transform="translate(150.96)">
            <g id="Group_3477" data-name="Group 3477">
              <path id="Path_5763" data-name="Path 5763" d="M279.711,100.728h-14.2l3.071-13.469h8.058Z" transform="translate(-265.514 -87.259)" fill="#ff6a4d"/>
            </g>
          </g>
          <g id="Group_3480" data-name="Group 3480" transform="translate(128.175 10.694)">
            <g id="Group_3479" data-name="Group 3479">
              <path id="Path_5764" data-name="Path 5764" d="M309.9,91.306H270.321a13.45,13.45,0,0,0-13.431,13.47v87.739a13.45,13.45,0,0,0,13.431,13.468h56.04a13.45,13.45,0,0,0,13.431-13.468V158.742a13.422,13.422,0,0,0-.587-3.94l-16.461-53.966A13.437,13.437,0,0,0,309.9,91.306Z" transform="translate(-256.89 -91.306)" fill="#d9dac1"/>
            </g>
          </g>
          <g id="Group_3482" data-name="Group 3482" transform="translate(22.931 10.694)">
            <g id="Group_3481" data-name="Group 3481">
              <path id="Path_5765" data-name="Path 5765" d="M256.209,91.306l-39.15,57.34,6.907,57.337h89.121a9.223,9.223,0,0,0,9.216-9.235v-96.2a9.225,9.225,0,0,0-9.216-9.237Z" transform="translate(-217.059 -91.306)" fill="#77bd0d"/>
            </g>
          </g>
          <g id="Group_3484" data-name="Group 3484" transform="translate(0 10.694)">
            <g id="Group_3483" data-name="Group 3483">
              <path id="Path_5766" data-name="Path 5766" d="M238.218,205.983l-22.753-31.475a37.387,37.387,0,0,1,3.905-48.375l24.084-23.986a37.165,37.165,0,0,1,26.23-10.841H282.36l-20.33,26.322a118.714,118.714,0,0,0-24.274,83.133Z" transform="translate(-208.381 -91.306)" fill="#92d205"/>
            </g>
          </g>
          <g id="Group_3486" data-name="Group 3486" transform="translate(41.355 100.742)">
            <g id="Group_3485" data-name="Group 3485">
              <path id="Path_5767" data-name="Path 5767" d="M277,151.941a26.483,26.483,0,1,1-26.483-26.555A26.52,26.52,0,0,1,277,151.941Z" transform="translate(-224.032 -125.386)" fill="#195467"/>
            </g>
          </g>
          <g id="Group_3488" data-name="Group 3488" transform="translate(53.636 113.058)">
            <g id="Group_3487" data-name="Group 3487">
              <path id="Path_5768" data-name="Path 5768" d="M242.882,158.523a14.238,14.238,0,1,1,14.2-14.237A14.235,14.235,0,0,1,242.882,158.523Z" transform="translate(-228.68 -130.047)" fill="#e1e2e1"/>
            </g>
          </g>
          <g id="Group_3490" data-name="Group 3490" transform="translate(142.511 100.742)">
            <g id="Group_3489" data-name="Group 3489">
              <path id="Path_5769" data-name="Path 5769" d="M315.285,151.941A26.485,26.485,0,1,1,288.8,125.386,26.521,26.521,0,0,1,315.285,151.941Z" transform="translate(-262.316 -125.386)" fill="#195467"/>
            </g>
          </g>
          <g id="Group_3492" data-name="Group 3492" transform="translate(154.793 113.058)">
            <g id="Group_3491" data-name="Group 3491">
              <path id="Path_5770" data-name="Path 5770" d="M281.166,158.523a14.238,14.238,0,1,1,14.2-14.237A14.237,14.237,0,0,1,281.166,158.523Z" transform="translate(-266.964 -130.047)" fill="#e1e2e1"/>
            </g>
          </g>
          <g id="Group_3495" data-name="Group 3495" transform="translate(29.999 31.718)">
            <g id="Group_3493" data-name="Group 3493" transform="translate(1.535 1.538)">
              <path id="Path_5771" data-name="Path 5771" d="M229.042,104.221a4.364,4.364,0,1,1-4.362-4.376A4.368,4.368,0,0,1,229.042,104.221Z" transform="translate(-220.315 -99.845)" fill="#2bb673"/>
            </g>
            <g id="Group_3494" data-name="Group 3494">
              <path id="Path_5772" data-name="Path 5772" d="M225.634,111.092a5.915,5.915,0,1,1,5.9-5.916A5.915,5.915,0,0,1,225.634,111.092Zm0-8.751a2.836,2.836,0,1,0,2.827,2.835A2.836,2.836,0,0,0,225.634,102.341Z" transform="translate(-219.734 -99.263)" fill="#1c75bc"/>
            </g>
          </g>
          <g id="Group_3498" data-name="Group 3498" transform="translate(43.371 70.768)">
            <g id="Group_3496" data-name="Group 3496" transform="translate(1.535 1.54)">
              <path id="Path_5773" data-name="Path 5773" d="M234.106,119a4.365,4.365,0,1,1-4.365-4.376A4.37,4.37,0,0,1,234.106,119Z" transform="translate(-225.376 -114.625)" fill="#2bb673"/>
            </g>
            <g id="Group_3497" data-name="Group 3497">
              <path id="Path_5774" data-name="Path 5774" d="M230.7,125.874a5.916,5.916,0,1,1,5.9-5.916A5.916,5.916,0,0,1,230.7,125.874Zm0-8.754a2.836,2.836,0,1,0,2.83,2.838A2.838,2.838,0,0,0,230.7,117.12Z" transform="translate(-224.795 -114.042)" fill="#1c75bc"/>
            </g>
          </g>
          <g id="Group_3500" data-name="Group 3500" transform="translate(33.391 37.633)">
            <g id="Group_3499" data-name="Group 3499">
              <path id="Path_5775" data-name="Path 5775" d="M237.993,139.135l-4.13,1.417-12.845-37.634,4.13-1.417Z" transform="translate(-221.018 -101.502)" fill="#2bb673"/>
            </g>
          </g>
          <g id="Group_3502" data-name="Group 3502" transform="translate(137.385 19.931)">
            <g id="Group_3501" data-name="Group 3501">
              <path id="Path_5776" data-name="Path 5776" d="M260.376,130.975v-25.4A10.757,10.757,0,0,1,271.122,94.8h28.219a10.76,10.76,0,0,1,10.281,7.623l7.747,25.4a10.774,10.774,0,0,1-10.276,13.927H271.122A10.76,10.76,0,0,1,260.376,130.975Z" transform="translate(-260.376 -94.802)" fill="#7bcfe4"/>
            </g>
          </g>
          <g id="Group_3504" data-name="Group 3504" transform="translate(210.322 83.813)">
            <g id="Group_3503" data-name="Group 3503">
              <path id="Path_5777" data-name="Path 5777" d="M288.046,137.832h-.066V118.979h.066a6.456,6.456,0,0,1,6.447,6.463v5.924A6.456,6.456,0,0,1,288.046,137.832Z" transform="translate(-287.98 -118.979)" fill="#ffde17"/>
            </g>
          </g>
        </g>
        <g id="Group_3507" data-name="Group 3507" transform="translate(144.211 81.442)">
          <g id="Group_3506" data-name="Group 3506">
            <rect id="Rectangle_2971" data-name="Rectangle 2971" width="24.287" height="9.386" fill="#3fa4a9"/>
          </g>
        </g>
      </g>
      <g id="Group_3509" data-name="Group 3509" transform="translate(33.6 556.27)">
        <path id="Path_5778" data-name="Path 5778" d="M1325.03,158.167h-33.652v-9.639h33.652Zm-67.3,0h-33.652v-9.639h33.652Zm-67.3,0h-33.652v-9.639h33.652Zm-67.3,0h-33.646v-9.639h33.646Zm-67.3,0h-33.647v-9.639h33.647Zm-67.3,0H954.886v-9.639h33.652Zm-67.3,0H887.587v-9.639h33.654Zm-67.3,0H820.292v-9.639h33.649Zm-67.3,0H753v-9.639h33.646Zm-67.3,0H685.7v-9.639h33.647Zm-67.3,0H618.4v-9.639h33.649Zm-67.3,0H551.1v-9.639H584.75Zm-67.3,0H483.8v-9.639h33.649Zm-67.3,0H416.506v-9.639h33.647Zm-67.3,0H349.208v-9.639h33.649Zm-67.3,0H281.91v-9.639h33.649Zm-67.3,0H214.611v-9.639H248.26Zm-67.3,0H147.313v-9.639h33.649Zm-67.3,0H80.014v-9.639h33.649Zm-67.3,0H12.716v-9.639H46.365Z" transform="translate(-12.716 -148.528)" fill="#fff"/>
      </g>
      <g id="Group_3516" data-name="Group 3516" transform="translate(1178.563 338.146)">
        <g id="Group_3512" data-name="Group 3512" transform="translate(0 0)">
          <g id="Group_3510" data-name="Group 3510" transform="translate(67.092)">
            <path id="Path_5779" data-name="Path 5779" d="M471.435,65.976V200.509a67.267,67.267,0,0,0,0-134.533Z" transform="translate(-471.435 -65.976)" fill="#77bd0d"/>
          </g>
          <g id="Group_3511" data-name="Group 3511">
            <path id="Path_5780" data-name="Path 5780" d="M446.043,133.243a67.179,67.179,0,0,0,67.092,67.267V65.976A67.176,67.176,0,0,0,446.043,133.243Z" transform="translate(-446.043 -65.976)" fill="#92d205"/>
          </g>
        </g>
        <g id="Group_3513" data-name="Group 3513" transform="translate(58.702 37.452)">
          <rect id="Rectangle_2972" data-name="Rectangle 2972" width="16.772" height="149.577" fill="#614f4b"/>
        </g>
        <g id="Group_3514" data-name="Group 3514" transform="translate(67.091 67.659)">
          <path id="Path_5781" data-name="Path 5781" d="M471.435,134.292l8.074,8.1,42.6-42.709-8.079-8.1Z" transform="translate(-471.435 -91.583)" fill="#614f4b"/>
        </g>
        <g id="Group_3515" data-name="Group 3515" transform="translate(28.807 54.283)">
          <path id="Path_5782" data-name="Path 5782" d="M495.23,116.808l-8.079,8.1L456.945,94.617l8.074-8.1Z" transform="translate(-456.945 -86.52)" fill="#614f4b"/>
        </g>
      </g>
    </g>
  </g>
</svg>
