<svg xmlns="http://www.w3.org/2000/svg" width="17.667" height="20.435" viewBox="0 0 17.667 20.435">
  <path id="notification" d="M0,10.863v-.2A3.318,3.318,0,0,1,.555,8.985a4.489,4.489,0,0,0,1.1-2.132c0-.614,0-1.237.054-1.851C1.986,2.044,4.91,0,7.8,0h.072c2.888,0,5.812,2.044,6.1,5,.054.614,0,1.237.045,1.851a4.566,4.566,0,0,0,1.1,2.141,3.232,3.232,0,0,1,.554,1.667v.193a3.286,3.286,0,0,1-.778,2.2,4.152,4.152,0,0,1-2.629,1.264,41.54,41.54,0,0,1-8.861,0A4.2,4.2,0,0,1,.77,13.057,3.321,3.321,0,0,1,0,10.863ZM5.58,17.374a2.844,2.844,0,0,0,3.952.465,2.662,2.662,0,0,0,.483-.465" transform="translate(1 1)" fill="none" stroke="#004dd8" stroke-linecap="round" stroke-linejoin="round" stroke-width="2" fill-rule="evenodd"/>
</svg>
