<svg xmlns="http://www.w3.org/2000/svg" width="30" height="30" viewBox="0 0 30 30">
  <g id="package" transform="translate(-0.428 -0.428)">
    <rect id="Rectangle_2496" data-name="Rectangle 2496" width="30" height="30" transform="translate(0.428 0.428)" fill="none"/>
    <g id="svgexport-17_3_" data-name="svgexport-17 (3)" transform="translate(3.964 3.964)">
      <path id="Path_5281" data-name="Path 5281" d="M23.494,4H7.361A3.361,3.361,0,0,0,4,7.361V23.494a3.361,3.361,0,0,0,3.361,3.361H23.494a3.361,3.361,0,0,0,3.361-3.361V7.361A3.361,3.361,0,0,0,23.494,4ZM12.739,5.344h5.378V10.4l-1.94-.776a2.017,2.017,0,0,0-1.5,0l-1.94.777ZM25.51,23.494a2.017,2.017,0,0,1-2.017,2.017H7.361a2.017,2.017,0,0,1-2.017-2.017V7.361A2.017,2.017,0,0,1,7.361,5.344h4.033V10.4a1.344,1.344,0,0,0,1.843,1.248l1.939-.776a.672.672,0,0,1,.5,0l1.939.776A1.344,1.344,0,0,0,19.461,10.4V5.344h4.033A2.017,2.017,0,0,1,25.51,7.361Zm-2.017-3.361a.672.672,0,0,1-.672.672H18.788a.672.672,0,1,1,0-1.344h4.033A.672.672,0,0,1,23.494,20.133Zm0,2.689a.672.672,0,0,1-.672.672H20.133a.672.672,0,1,1,0-1.344h2.689A.672.672,0,0,1,23.494,22.822Z" transform="translate(-4 -4)" fill="#fff" stroke="#fff" stroke-width="0.6"/>
    </g>
  </g>
</svg>
