<svg xmlns="http://www.w3.org/2000/svg" width="454.523" height="423" viewBox="0 0 454.523 423">
  <path id="Path_5251" data-name="Path 5251" d="M132,369.187c49.682.513,199.071,12.827,236.953-9.919,37.967-22.832,36.086-87.735-4.361-108.087-38.48-19.326-86.367.257-125.446-9.748a5.516,5.516,0,0,1-4.1-5.131L233.5,192.691a4.4,4.4,0,0,1,3.848-4.447c81.92-11.886,82.177-127.327-2.138-129.636q-78.585-2.138-157.256-.855a5.387,5.387,0,0,1-5.473-5.387l.086-44.723A5.045,5.045,0,0,1,77.615,2.6q79.1-1.026,156.743,1.283C329.019,6.7,386.141,98.115,340.905,182a2.993,2.993,0,0,0,2.052,4.447c93.037,17.786,145.028,109.284,88.419,188.724-32.751,45.749-76.618,50.024-135.194,50.11H77.957a3.848,3.848,0,0,1-3.848-3.848l.257-214.72q0-13.425-9.492-3.934L41.614,225.955a5.216,5.216,0,0,1-7.354,0L1.937,193.717a5.473,5.473,0,0,1,.086-7.782L95.743,94.524a8.3,8.3,0,0,1,11.63,0l93.379,92.353a5.005,5.005,0,0,1,1.514,3.575,4.83,4.83,0,0,1-1.514,3.522l-33.179,31.81a5.3,5.3,0,0,1-7.268.086l-27.62-25.312q-4.96-4.532-4.96,2.138V364.912A4.276,4.276,0,0,0,132,369.187Z" transform="translate(-0.355 -2.283)" fill="#b6c3d3" opacity="0.11"/>
</svg>
