<svg xmlns="http://www.w3.org/2000/svg" width="233" height="280.948" viewBox="0 0 233 280.948">
  <path id="Path_5352" data-name="Path 5352" d="M245.989,106.46l11.025,22.121a1.672,1.672,0,0,0,2.206.8q26.43-12.163,52.427.167,1.57.769,1.036,1.738a2.678,2.678,0,0,1-2.272,1c-2.573.133-33.749,3.442-31.443,6.85a1.237,1.237,0,0,0,1.07.535c30.774,0,54.5,5.179,75.082,29.639q1.069,1.3-.468.535-25.83-12.9-47.115-11.9-10.424.5-.868,4.711,42.87,19.046,55.735,55.969.87,2.507-.836.5c-7.685-9.022-40.029-36.89-52.026-34.885q-1.737.267-.234,1.337,38.093,27.366,44.508,72.643.735,5.112-1.937.668A186.3,186.3,0,0,0,306.6,207.3q-1.3-1.036-.434.4a174.6,174.6,0,0,1,21.085,49.553c3.408,13.366,1.938,28.469,2.807,42.9a.89.89,0,0,1-.769.969l-.4.034a.55.55,0,0,1-.567-.368c-8.421-26.264-18.612-51.692-38.092-71.874q-1.17-1.2-.7.4,13.6,44.809-3.909,87.746a1.227,1.227,0,0,1-1.236.835l-.469-.067a.534.534,0,0,1-.4-.568A146.845,146.845,0,0,0,264,235.54q-3.042-5.313-3.843.9l-2.774,22.02a3.428,3.428,0,0,0,.9,2.774c4.779,4.845.067,27.4-1.136,34.216a4.128,4.128,0,0,0,.668,2.974c4.712,7.017,1.571,24.326-.535,34.584a4.269,4.269,0,0,0,.435,3.108l2.1,3.241a4.677,4.677,0,0,1,.869,2.974l-3.676,30.641a4.021,4.021,0,0,0,.769,2.974l7.485,9.255q1.07,1.337-.6,1.4l-17.008.8-18.711-.668q-2.206-.067-.8-1.637l6.918-7.586a3.905,3.905,0,0,0,1.236-2.64q-1.37-15.571-3.743-30.674c-.568-3.609.034-4.31,2.439-6.75a3.452,3.452,0,0,0,1.07-2.774l-3.442-29.3a3.9,3.9,0,0,1,.936-2.874c4.879-5.881-.267-28.3-1-36.422a3.347,3.347,0,0,1,1.136-2.706c4.511-4.144,0-22.221-.367-28.068q-.335-5.045-2.907-.7a139.585,139.585,0,0,0-19.948,80.7q.134,1.9-1.437.9a8.774,8.774,0,0,1-3.308-4.712,127.466,127.466,0,0,1-1.638-81.9q1.27-4.077-1.4-.969a188.359,188.359,0,0,0-38.226,70.37,1.9,1.9,0,0,1-.735,1.169q-1.069.635-.969-1.036c1.738-32.044,1.07-60.313,20.517-85.039q11.16-14.134-2.506-2.406a173.468,173.468,0,0,0-38.092,46.413q-3.909,6.917-2.774-.936c2.674-18.412,20.383-60.814,39.93-69.435q12.731-5.58-1.136-2.807c-14.4,2.908-36.455,23.056-45.845,34.183q-4.844,5.747-2.238-1.3,15.6-42.369,60.413-56.57c2.1-.668,3.375-3.441-.468-3.408A122.266,122.266,0,0,0,139.9,169.212q-1.5.7-.468-.635c19.514-24.527,41.8-27.634,71.541-28.6,1.431-.06,2.566-.593,2.773-1.3.969-3.341-31.343-6.516-34.483-6.716q-1.671-.1-.167-.9,26.5-14.3,53.964-2.372a3.724,3.724,0,0,0,3.2-.089,3.8,3.8,0,0,0,1.976-2.551A66.376,66.376,0,0,1,245.989,106.46Z" transform="translate(-129.697 -106.46)" fill="#ebc66b" opacity="0.08"/>
</svg>
