<svg xmlns="http://www.w3.org/2000/svg" width="30" height="30" viewBox="0 0 30 30">
  <g id="paymentHistory" transform="translate(-0.428 -0.428)">
    <rect id="Rectangle_2496" data-name="Rectangle 2496" width="30" height="30" transform="translate(0.428 0.428)" fill="none"/>
    <g id="svgexport-7" transform="translate(3.193 3.193)">
      <path id="Path_5488" data-name="Path 5488" d="M26.48,19a1.6,1.6,0,1,0,1.555,1.6A1.6,1.6,0,0,0,26.48,19Zm0,1.064a.532.532,0,1,1-.532.532A.532.532,0,0,1,26.48,20.063Zm0,3.192a1.6,1.6,0,1,0,1.555,1.6,1.6,1.6,0,0,0-1.555-1.6Zm0,1.064a.532.532,0,1,1-.532.532.532.532,0,0,1,.532-.532ZM30.735,19a1.6,1.6,0,1,0,1.555,1.6A1.6,1.6,0,0,0,30.735,19Zm0,1.064a.532.532,0,1,1-.532.532A.532.532,0,0,1,30.735,20.063Zm0,3.192a1.6,1.6,0,1,0,1.555,1.6,1.6,1.6,0,0,0-1.555-1.6Zm0,1.064a.532.532,0,1,1-.532.532A.532.532,0,0,1,30.735,24.319Z" transform="translate(-12.117 -9.423)" fill="#fff" stroke="#fff" stroke-width="0.3" fill-rule="evenodd"/>
      <path id="Path_5489" data-name="Path 5489" d="M15.895,3.128H12.7V2.6a1.6,1.6,0,0,0-1.6-1.6H8.979a1.6,1.6,0,0,0-1.6,1.6v.532H6.319A3.191,3.191,0,0,0,3.127,6.321V8.98a.532.532,0,1,0,1.064,0V8.448H24.406V22.811a1.6,1.6,0,1,1-3.192,0V21.746a1.6,1.6,0,0,0-1.6-1.6h-9.4a5.852,5.852,0,1,0-6.727,0H2.6a1.6,1.6,0,0,0-1.6,1.6V22.81a2.66,2.66,0,0,0,2.66,2.66H22.81a2.66,2.66,0,0,0,2.66-2.66V6.319a3.191,3.191,0,0,0-3.192-3.192H21.214V2.6a1.6,1.6,0,0,0-1.6-1.6H17.491a1.6,1.6,0,0,0-1.6,1.6Zm3.724,18.087H2.6a.532.532,0,0,0-.532.531V22.81a1.6,1.6,0,0,0,1.6,1.6H20.683a2.647,2.647,0,0,1-.532-1.6V21.746a.53.53,0,0,0-.532-.532ZM6.851,10.576a4.788,4.788,0,1,1-4.788,4.788,4.788,4.788,0,0,1,4.788-4.788ZM16.958,4.192v.532a.532.532,0,0,0,.532.531h1.064a.532.532,0,0,1,0,1.064H17.491a1.6,1.6,0,0,1-1.6-1.6V4.192H8.447v.532a.532.532,0,0,0,.532.531h1.064a.532.532,0,0,1,0,1.064H8.979a1.6,1.6,0,0,1-1.6-1.6V4.192H6.319A2.129,2.129,0,0,0,4.191,6.32V7.384H24.406V6.32a2.129,2.129,0,0,0-2.128-2.128Zm-5.32-1.064V2.6a.532.532,0,0,0-.532-.532H8.979a.532.532,0,0,0-.532.532v.532Zm8.512,0V2.6a.532.532,0,0,0-.532-.532H17.491a.532.532,0,0,0-.532.532v.532Z" transform="translate(-0.999 -1)" fill="#fff" stroke="#fff" stroke-width="0.3" fill-rule="evenodd"/>
      <path id="Path_5490" data-name="Path 5490" d="M9.128,22.064H8.6a1.6,1.6,0,1,0,0,3.192h2.128a.532.532,0,1,1,0,1.064H8.6a.532.532,0,0,1-.532-.532.532.532,0,0,0-1.064,0,1.6,1.6,0,0,0,1.6,1.6h.532v.532a.532.532,0,0,0,1.064,0v-.532h.532a1.6,1.6,0,1,0,0-3.192H8.6a.532.532,0,1,1,0-1.064h2.128a.532.532,0,0,1,.531.532.532.532,0,1,0,1.064,0,1.6,1.6,0,0,0-1.6-1.6h-.531v-.532a.532.532,0,0,0-1.064,0Z" transform="translate(-3.808 -10.36)" fill="#fff" stroke="#fff" stroke-width="0.3" fill-rule="evenodd"/>
    </g>
  </g>
</svg>
