<svg xmlns="http://www.w3.org/2000/svg" width="30" height="46" viewBox="0 0 30 46">
  <g id="pinOffline" transform="translate(-4321.475 1502.787)">
    <rect id="Rectangle_2689" data-name="Rectangle 2689" width="5" height="18" rx="2.5" transform="translate(4334.475 -1474.787)" fill="#ff4040"/>
    <g id="Ellipse_188" data-name="Ellipse 188" transform="translate(4321.475 -1502.787)" fill="#ff4040" stroke="#ff4040" stroke-width="2">
      <ellipse cx="15" cy="15.5" rx="15" ry="15.5" stroke="none"/>
      <ellipse cx="15" cy="15.5" rx="14" ry="14.5" fill="none"/>
    </g>
    <path id="Path_5272" data-name="Path 5272" d="M5.5,16.635c1.943.02,7.787.5,9.269-.388a2.52,2.52,0,0,0-.171-4.228c-1.505-.756-3.378.01-4.907-.381a.216.216,0,0,1-.161-.2l-.06-1.706a.172.172,0,0,1,.151-.174c3.2-.465,3.215-4.981-.084-5.071Q6.468,4.4,3.391,4.453a.211.211,0,0,1-.214-.211l0-1.749a.2.2,0,0,1,.2-.2q3.094-.04,6.131.05a4.66,4.66,0,0,1,4.168,6.968.117.117,0,0,0,.08.174c3.639.7,5.673,4.275,3.459,7.382-1.281,1.79-3,1.957-5.288,1.96H3.391a.151.151,0,0,1-.151-.151l.01-8.4q0-.525-.371-.154l-.91.906a.2.2,0,0,1-.288,0L.417,9.771a.214.214,0,0,1,0-.3L4.086,5.891a.324.324,0,0,1,.455,0L8.194,9.5a.2.2,0,0,1,.059.14.189.189,0,0,1-.059.138L6.9,11.026a.207.207,0,0,1-.284,0l-1.08-.99q-.194-.177-.194.084v6.345A.167.167,0,0,0,5.5,16.635Z" transform="translate(4327.23 -1498.081)" fill="#fff"/>
  </g>
</svg>
