<svg xmlns="http://www.w3.org/2000/svg" width="71" height="71" viewBox="0 0 71 71">
  <g id="Group_3262" data-name="Group 3262" transform="translate(-320.814 -293.814)">
    <g id="Group_1396" data-name="Group 1396" transform="translate(320.814 293.814)">
      <circle id="Ellipse_26" data-name="Ellipse 26" cx="35.5" cy="35.5" r="35.5" fill="#f3f3f3"/>
      <g id="Group_1519" data-name="Group 1519" transform="translate(15.351 15.351)">
        <rect id="Rectangle_1958" data-name="Rectangle 1958" width="41" height="41" transform="translate(-0.351 -0.351)" fill="none"/>
        <g id="svgexport-20" transform="translate(4.511 1.254)">
          <path id="Path_1394" data-name="Path 1394" d="M15.594,18.283A8.846,8.846,0,0,0,22.057,15.6a8.846,8.846,0,0,0,2.678-6.463,8.846,8.846,0,0,0-2.678-6.464A8.847,8.847,0,0,0,15.594,0,8.845,8.845,0,0,0,9.13,2.678,8.846,8.846,0,0,0,6.452,9.141,8.846,8.846,0,0,0,9.13,15.605a8.848,8.848,0,0,0,6.463,2.678ZM10.7,4.251a6.607,6.607,0,0,1,4.891-2.026,6.609,6.609,0,0,1,4.891,2.026,6.609,6.609,0,0,1,2.027,4.891,6.609,6.609,0,0,1-2.027,4.891,6.608,6.608,0,0,1-4.891,2.027A6.609,6.609,0,0,1,10.7,14.032,6.607,6.607,0,0,1,8.676,9.141,6.608,6.608,0,0,1,10.7,4.251ZM31.589,29.185a22.583,22.583,0,0,0-.308-2.4,18.882,18.882,0,0,0-.59-2.411,11.908,11.908,0,0,0-.991-2.249,8.477,8.477,0,0,0-1.494-1.948,6.592,6.592,0,0,0-2.147-1.349,7.423,7.423,0,0,0-2.741-.5,2.782,2.782,0,0,0-1.486.63q-.772.5-1.548,1a8.867,8.867,0,0,1-2,.882,7.776,7.776,0,0,1-4.9,0,8.846,8.846,0,0,1-2-.882c-.576-.368-1.1-.7-1.549-1a2.78,2.78,0,0,0-1.485-.63,7.41,7.41,0,0,0-2.741.5,6.585,6.585,0,0,0-2.147,1.349,8.479,8.479,0,0,0-1.494,1.948,11.938,11.938,0,0,0-.991,2.249,18.927,18.927,0,0,0-.59,2.411,22.426,22.426,0,0,0-.308,2.4C.025,29.911,0,30.665,0,31.428A6.3,6.3,0,0,0,1.872,36.2,6.737,6.737,0,0,0,6.7,37.955H24.971A6.738,6.738,0,0,0,29.794,36.2a6.3,6.3,0,0,0,1.872-4.768C31.666,30.663,31.64,29.908,31.589,29.185Zm-3.329,5.4a4.537,4.537,0,0,1-3.29,1.146H6.7a4.537,4.537,0,0,1-3.29-1.146,4.116,4.116,0,0,1-1.181-3.157c0-.711.023-1.413.07-2.088a20.188,20.188,0,0,1,.278-2.16,16.694,16.694,0,0,1,.519-2.126A9.714,9.714,0,0,1,3.9,23.226,6.282,6.282,0,0,1,5,21.786,4.372,4.372,0,0,1,6.425,20.9a5.117,5.117,0,0,1,1.752-.338c.078.042.217.121.441.267.457.3.984.638,1.567,1.01A11.017,11.017,0,0,0,12.7,22.96a10,10,0,0,0,6.267,0,11.032,11.032,0,0,0,2.515-1.124c.6-.381,1.108-.711,1.566-1.009.225-.146.363-.226.441-.267a5.12,5.12,0,0,1,1.752.338,4.379,4.379,0,0,1,1.428.888,6.268,6.268,0,0,1,1.1,1.44,9.679,9.679,0,0,1,.807,1.828,16.667,16.667,0,0,1,.519,2.126,20.4,20.4,0,0,1,.278,2.161h0c.047.671.071,1.373.071,2.087a4.115,4.115,0,0,1-1.181,3.157Zm0,0" transform="translate(0 0)" fill="#1851d1"/>
        </g>
      </g>
    </g>
  </g>
</svg>
