<svg xmlns="http://www.w3.org/2000/svg" width="35" height="35" viewBox="0 0 35 35">
  <g id="profile" transform="translate(-80 797)">
    <circle id="Ellipse_164" data-name="Ellipse 164" cx="17.5" cy="17.5" r="17.5" transform="translate(80 -797)" fill="#f3f3f3"/>
    <g id="Group_3137" data-name="Group 3137" transform="translate(1 -33)">
      <g id="Group_3136" data-name="Group 3136" transform="translate(-0.103)">
        <path id="Path_5253" data-name="Path 5253" d="M14.764,15.858a6.632,6.632,0,0,0-1.037-.071H9.019a4.66,4.66,0,0,0-5,5.026c0,1.84.792,2.625,2.649,2.625H12.55a.883.883,0,1,1,0,1.766H6.664c-2.846,0-4.414-1.56-4.414-4.391,0-3.134,1.773-6.792,6.769-6.792h4.709a8.189,8.189,0,0,1,1.317.094.881.881,0,0,1,.731,1.011.89.89,0,0,1-1.011.731Z" transform="translate(84.853 -760.317)" fill="#004dd8"/>
        <path id="Path_5254" data-name="Path 5254" d="M3.273,15.858a6.632,6.632,0,0,1,1.037-.071H9.018a4.66,4.66,0,0,1,5,5.026c0,1.84-.792,2.625-2.649,2.625H5.487a.883.883,0,1,0,0,1.766h5.886c2.846,0,4.414-1.56,4.414-4.391,0-3.134-1.773-6.792-6.769-6.792H4.31a8.189,8.189,0,0,0-1.317.094.881.881,0,0,0-.731,1.011.89.89,0,0,0,1.011.731Z" transform="translate(89.853 -760.317)" fill="#004dd8"/>
      </g>
      <path id="Path_5255" data-name="Path 5255" d="M11.383,12.256a5,5,0,1,0-5-5,5,5,0,0,0,5,5Zm0-8.24A3.237,3.237,0,1,1,8.146,7.253a3.237,3.237,0,0,1,3.237-3.237Z" transform="translate(84.885 -760.25)" fill="#004dd8"/>
    </g>
  </g>
</svg>
