<svg xmlns="http://www.w3.org/2000/svg" width="30" height="30" viewBox="0 0 30 30">
  <g id="restore" transform="translate(886 -54)">
    <rect id="Rectangle_2711" data-name="Rectangle 2711" width="30" height="30" transform="translate(-886 54)" fill="none"/>
    <g id="svgexport-7" transform="translate(-883.5 56.539)">
      <path id="Path_5288" data-name="Path 5288" d="M7.462,24.265a1.085,1.085,0,0,0,.767-1.851,1.111,1.111,0,0,0-1.534,0,1.084,1.084,0,0,0,.767,1.851Zm2.359,1.819a1.083,1.083,0,1,0-.575-.6,1.082,1.082,0,0,0,.575.6Zm-4.81-7.062a1.085,1.085,0,1,0,1.406.616,1.087,1.087,0,0,0-1.406-.616Z" transform="translate(-0.675 -3.947)" fill="#004dd8"/>
      <path id="Path_5289" data-name="Path 5289" d="M1.587,10.859A1.139,1.139,0,0,0,1.835,12.1l.9.9c.4.4.794.924,1.427.891.587-.03.97-.554,1.354-.939l.856-.856a1.131,1.131,0,0,0-.692-1.93,8.012,8.012,0,1,1,7.579,10.6,1.141,1.141,0,1,0,0,2.282,10.3,10.3,0,1,0-9.951-12.9H2.641a1.137,1.137,0,0,0-1.054.7Z" transform="translate(0 0)" fill="#004dd8"/>
    </g>
  </g>
</svg>
