<svg id="User_Management" data-name="User Management" xmlns="http://www.w3.org/2000/svg" width="30" height="30" viewBox="0 0 30 30">
  <rect id="Rectangle_2495" data-name="Rectangle 2495" width="30" height="30" fill="none"/>
  <g id="svgexport-10" transform="translate(-0.147 0.683)">
    <path id="Path_5152" data-name="Path 5152" d="M11.383,12.256a5,5,0,1,0-5-5A5,5,0,0,0,11.383,12.256Zm0-8.24A3.237,3.237,0,1,1,8.146,7.253a3.237,3.237,0,0,1,3.237-3.237Zm3.381,11.842a6.632,6.632,0,0,0-1.037-.071H9.019a4.66,4.66,0,0,0-5,5.026c0,1.84.792,2.625,2.649,2.625H12.55a.883.883,0,1,1,0,1.766H6.664c-2.846,0-4.414-1.56-4.414-4.391,0-3.134,1.773-6.792,6.769-6.792h4.709a8.189,8.189,0,0,1,1.317.094.881.881,0,0,1,.731,1.011.89.89,0,0,1-1.011.731Z" fill="#fff"/>
    <g id="setting" transform="translate(15.728 14.869)">
      <path id="Path_5147" data-name="Path 5147" d="M11.278,3.98l-.373-.647a1.146,1.146,0,0,0-1.563-.422h0A1.14,1.14,0,0,1,7.78,2.505a1.1,1.1,0,0,1-.154-.548h0A1.146,1.146,0,0,0,6.481.778H5.729a1.14,1.14,0,0,0-1.14,1.146h0A1.146,1.146,0,0,1,3.443,3.053,1.1,1.1,0,0,1,2.895,2.9h0a1.146,1.146,0,0,0-1.563.422l-.4.658a1.146,1.146,0,0,0,.417,1.563h0a1.146,1.146,0,0,1,0,1.985h0A1.14,1.14,0,0,0,.932,9.085h0l.378.653a1.146,1.146,0,0,0,1.563.444h0A1.135,1.135,0,0,1,4.43,10.6a1.1,1.1,0,0,1,.154.548h0a1.146,1.146,0,0,0,1.146,1.146h.751a1.146,1.146,0,0,0,1.146-1.14h0a1.14,1.14,0,0,1,1.146-1.146,1.167,1.167,0,0,1,.548.154h0a1.146,1.146,0,0,0,1.563-.417h0l.395-.658a1.14,1.14,0,0,0-.417-1.563h0a1.14,1.14,0,0,1-.417-1.563,1.124,1.124,0,0,1,.417-.417h0a1.146,1.146,0,0,0,.417-1.557h0Z" transform="translate(-0.779 -0.778)" fill="none" stroke="#fff" stroke-linecap="round" stroke-linejoin="round" stroke-width="1.5" fill-rule="evenodd"/>
      <circle id="Ellipse_138" data-name="Ellipse 138" cx="1.579" cy="1.579" r="1.579" transform="translate(3.75 4.178)" fill="none" stroke="#fff" stroke-linecap="round" stroke-linejoin="round" stroke-width="1.5"/>
    </g>
  </g>
</svg>
